<?xml version="1.0" encoding="UTF-8" standalone="no"?>
<svg
   xmlns:dc="http://purl.org/dc/elements/1.1/"
   xmlns:cc="http://creativecommons.org/ns#"
   xmlns:rdf="http://www.w3.org/1999/02/22-rdf-syntax-ns#"
   xmlns:svg="http://www.w3.org/2000/svg"
   xmlns="http://www.w3.org/2000/svg"
   xmlns:sodipodi="http://sodipodi.sourceforge.net/DTD/sodipodi-0.dtd"
   xmlns:inkscape="http://www.inkscape.org/namespaces/inkscape"
   width="65.534897"
   height="65.534897"
   viewBox="0 0 17.33944 17.33944"
   version="1.1"
   id="svg8"
   inkscape:version="1.0.1 (3bc2e813f5, 2020-09-07, custom)"
   sodipodi:docname="browser-icon.svg"
   inkscape:export-filename="/home/richard/Projects/Vue/richard-halford/public/favicon.png"
   inkscape:export-xdpi="93.086479"
   inkscape:export-ydpi="93.086479">
  <defs
     id="defs2">
    <rect
       x="39.921314"
       y="14.941271"
       width="111.23493"
       height="101.86784"
       id="rect12" />
    <rect
       x="39.921314"
       y="14.941271"
       width="38.778145"
       height="31.864525"
       id="rect12-0" />
    <rect
       x="39.921314"
       y="14.941271"
       width="111.23493"
       height="101.86784"
       id="rect851" />
  </defs>
  <sodipodi:namedview
     id="base"
     pagecolor="#ffffff"
     bordercolor="#666666"
     borderopacity="1.0"
     inkscape:pageopacity="0"
     inkscape:pageshadow="2"
     inkscape:zoom="11.356392"
     inkscape:cx="33.956407"
     inkscape:cy="29.97517"
     inkscape:document-units="mm"
     inkscape:current-layer="layer2"
     inkscape:document-rotation="0"
     showgrid="false"
     units="px"
     inkscape:pagecheckerboard="false"
     inkscape:snap-page="true"
     inkscape:snap-grids="false"
     inkscape:snap-bbox="false"
     inkscape:window-width="1920"
     inkscape:window-height="1058"
     inkscape:window-x="2560"
     inkscape:window-y="202"
     inkscape:window-maximized="0"
     fit-margin-top="0"
     fit-margin-left="0"
     fit-margin-right="0"
     fit-margin-bottom="0"
     showborder="true"
     inkscape:showpageshadow="false">
    <inkscape:grid
       type="xygrid"
       id="grid882"
       originx="0.27548868"
       originy="0.27548868" />
  </sodipodi:namedview>
  <metadata
     id="metadata5">
    <rdf:RDF>
      <cc:Work
         rdf:about="">
        <dc:format>image/svg+xml</dc:format>
        <dc:type
           rdf:resource="http://purl.org/dc/dcmitype/StillImage" />
        <dc:title></dc:title>
      </cc:Work>
    </rdf:RDF>
  </metadata>
  <g
     inkscape:label="Background"
     inkscape:groupmode="layer"
     id="layer1"
     transform="translate(0.27548872,0.27548872)" />
  <g
     inkscape:groupmode="layer"
     id="layer2"
     inkscape:label="Text"
     transform="translate(0.27548872,0.27548872)">
    <rect
       style="fill:#202020;fill-opacity:1;stroke:#ffffff;stroke-width:0.526238;stroke-opacity:0"
       id="rect876"
       width="16.813204"
       height="16.813204"
       x="-0.01236969"
       y="-0.01236969"
       ry="4.203301" />
    <g
       aria-label="RH"
       transform="matrix(0.68613441,0,0,0.68613441,-27.339066,-8.8805725)"
       id="text10-6"
       style="font-style:normal;font-variant:normal;font-weight:normal;font-stretch:normal;font-size:17.3572px;line-height:1.25;font-family:'Playfair Display';-inkscape-font-specification:'Playfair Display';letter-spacing:0px;word-spacing:0px;white-space:pre;shape-inside:url(#rect12-0)">
      <path
         d="m 40.650877,18.911049 q 0.364502,0.01736 0.954646,0.03471 0.590145,0.01736 1.162933,0.01736 0.815788,0 1.562148,-0.01736 0.74636,-0.01736 1.058789,-0.01736 2.100221,0 3.141654,0.86786 1.041432,0.86786 1.041432,2.152293 0,0.520716 -0.208287,1.110861 -0.208286,0.590145 -0.729002,1.110861 -0.503359,0.520716 -1.388576,0.86786 -0.885218,0.329786 -2.239079,0.329786 h -1.666291 v -0.347144 h 1.492719 q 1.232361,0 1.874577,-0.381858 0.659574,-0.399216 0.885218,-1.041432 0.243,-0.659574 0.243,-1.458005 0,-1.371219 -0.659573,-2.117578 -0.642217,-0.763717 -2.221722,-0.763717 -0.798431,0 -1.041432,0.295072 -0.243001,0.295073 -0.243001,1.197647 v 8.609172 q 0,0.624859 0.104144,0.937288 0.104143,0.31243 0.399215,0.416573 0.31243,0.104143 0.902575,0.138858 v 0.347144 q -0.399216,-0.03472 -1.006718,-0.03472 -0.590145,-0.01736 -1.197647,-0.01736 -0.676931,0 -1.267076,0.01736 -0.590144,0 -0.954646,0.03472 v -0.347144 q 0.590145,-0.03472 0.885218,-0.138858 0.312429,-0.104143 0.416572,-0.416573 0.104144,-0.312429 0.104144,-0.937288 v -8.609172 q 0,-0.642216 -0.104144,-0.937289 -0.104143,-0.312429 -0.416572,-0.416573 -0.295073,-0.1215 -0.885218,-0.138857 z m 2.759795,6.161806 q 0.937289,0.03471 1.475362,0.08679 0.538074,0.03471 0.86786,0.06943 0.347144,0.03471 0.659574,0.08679 1.162932,0.190929 1.666291,0.711645 0.520716,0.503359 0.763717,1.579505 l 0.43393,1.770435 q 0.173572,0.763717 0.347144,1.110861 0.190929,0.329786 0.572788,0.312429 0.295072,-0.01736 0.486001,-0.190929 0.208287,-0.173572 0.43393,-0.468644 l 0.260358,0.190929 q -0.364501,0.538073 -0.763716,0.833145 -0.381859,0.277716 -1.093504,0.277716 -0.642216,0 -1.128218,-0.381859 -0.486002,-0.381858 -0.729003,-1.492719 l -0.381858,-1.73572 q -0.156215,-0.74636 -0.364501,-1.284433 -0.190929,-0.55543 -0.555431,-0.86786 -0.347144,-0.31243 -1.041432,-0.31243 h -1.874577 z"
         style="font-size:17.3572px;fill:#ffffff"
         id="path918" />
      <path
         d="m 59.153632,31.199947 v -0.347144 q 0.590145,-0.03472 0.885218,-0.138858 0.312429,-0.104143 0.416572,-0.416573 0.104144,-0.312429 0.104144,-0.937288 v -8.609172 q 0,-0.642216 -0.104144,-0.937289 -0.104143,-0.312429 -0.416572,-0.416573 -0.295073,-0.1215 -0.885218,-0.138857 v -0.347144 q 0.399216,0.01736 1.006718,0.03471 0.607502,0.01736 1.197647,0.01736 0.676931,0 1.267076,-0.01736 0.590144,-0.01736 0.954646,-0.03471 v 0.347144 q -0.590145,0.01736 -0.902575,0.138857 -0.295072,0.104144 -0.399215,0.416573 -0.104144,0.295073 -0.104144,0.937289 v 8.609172 q 0,0.624859 0.104144,0.937288 0.104143,0.31243 0.399215,0.416573 0.31243,0.104143 0.902575,0.138858 v 0.347144 q -0.364502,-0.03472 -0.954646,-0.03472 -0.590145,-0.01736 -1.267076,-0.01736 -0.590145,0 -1.197647,0.01736 -0.607502,0 -1.006718,0.03472 z m -7.255309,0 v -0.347144 q 0.590144,-0.03472 0.885217,-0.138858 0.312429,-0.104143 0.416573,-0.416573 0.104143,-0.312429 0.104143,-0.937288 v -8.609172 q 0,-0.642216 -0.104143,-0.937289 -0.104144,-0.312429 -0.416573,-0.416573 -0.295073,-0.1215 -0.885217,-0.138857 v -0.347144 q 0.364501,0.01736 0.954646,0.03471 0.590144,0.01736 1.267075,0.01736 0.607502,0 1.197647,-0.01736 0.607502,-0.01736 1.006718,-0.03471 v 0.347144 q -0.590145,0.01736 -0.902575,0.138857 -0.295072,0.104144 -0.399215,0.416573 -0.104144,0.295073 -0.104144,0.937289 v 8.609172 q 0,0.624859 0.104144,0.937288 0.104143,0.31243 0.399215,0.416573 0.31243,0.104143 0.902575,0.138858 v 0.347144 q -0.399216,-0.03472 -1.006718,-0.03472 -0.590145,-0.01736 -1.197647,-0.01736 -0.676931,0 -1.267075,0.01736 -0.590145,0 -0.954646,0.03472 z m 2.41265,-6.005592 v -0.347144 h 6.856095 v 0.347144 z"
         style="font-size:17.3572px;fill:#b71c1c;fill-opacity:1"
         id="path920" />
    </g>
  </g>
</svg>
